# xmcd
#
# Track frame offsets:
#	150
#	12199
#	25157
#	34677
#	45991
#	56323
#	65501
#	74893
#	85174
#	95337
#	107861
#	118045
#	129089
#	142353
#	153450
#	165697
#	178268
#	187960
#	197335
#	210143
#	220477
#	231447
#	242963
#	257043
#
# Disc length: 3562 seconds
# Revision: 2
# Processed by: cddbd v1.5.2PL0 Copyright (c) Steve Scherf et al.
# Submitted via: dBpowerAMP V12.0
#
DISCID=560de818
DTITLE=Faron Young - Sweethearts Or Strangers - Object Of My Affection
DYEAR=2011
DGENRE=Country
TTITLE0=Sweethearts Or Strangers
TTITLE1=Your Cheatin' Heart
TTITLE2=Shame On You
TTITLE3=I Can't Tell My Heart
TTITLE4=Better Things Than These
TTITLE5=You Call Everybody Darling
TTITLE6=I'm A Poor Boy
TTITLE7=I Can't Help It (If I'm Still In Love With You)
TTITLE8=Worried Mind
TTITLE9=I'll Be Yours
TTITLE10=That's What It's Like To Be Lonesome
TTITLE11=You Are My Sunshine
TTITLE12=Don't Take Your Love From Me
TTITLE13=If I Had You
TTITLE14=Stay As Sweet As You Are
TTITLE15=My Darling My Darling
TTITLE16=Who Whouldn't Love You
TTITLE17=I Can't Believe That You're In Love With Me
TTITLE18=Object Of My Affection
TTITLE19=It All Depends On You
TTITLE20=Thank You For A Lovely Evening
TTITLE21=Everything I Have Is Yours
TTITLE22=Nearness Of You
TTITLE23=Sweet And Lovely
EXTD=
EXTT0=
EXTT1=
EXTT2=
EXTT3=
EXTT4=
EXTT5=
EXTT6=
EXTT7=
EXTT8=
EXTT9=
EXTT10=
EXTT11=
EXTT12=
EXTT13=
EXTT14=
EXTT15=
EXTT16=
EXTT17=
EXTT18=
EXTT19=
EXTT20=
EXTT21=
EXTT22=
EXTT23=
PLAYORDER=
